<svg
  width="100%"
  height="100%"
  viewBox="0 0 1440 365"
  fill="none"
  xmlns="http://www.w3.org/2000/svg"
>
  <path
    fillRule="evenodd"
    clipRule="evenodd"
    d="M1440 0H11V255C11 277.091 28.9086 295 51 295C73.0914 295 91 277.091 91 255V93.1688C94.7882 94.3586 98.8192 95 103 95C108.305 95 113.368 93.9675 118 92.0924V180C118 211.48 143.52 237 175 237C206.48 237 232 211.48 232 180V130.227C238.848 135.716 247.541 139 257 139C264.702 139 271.896 136.823 278 133.051V313C278 335.091 295.909 353 318 353C340.091 353 358 335.091 358 313V210C358 237.062 379.938 259 407 259C434.062 259 456 237.062 456 210V80.9954C464.052 95.3215 479.396 105 497 105C509.362 105 520.609 100.227 529 92.4241V244C529 268.853 549.147 289 574 289C598.853 289 619 268.853 619 244V179C619 201.091 636.909 219 659 219C681.091 219 699 201.091 699 179V262C699 295.137 725.863 322 759 322C792.137 322 819 295.137 819 262V118.5C819 131.479 829.521 142 842.5 142C852.097 142 860.351 136.247 864 128.001V216.5C864 231.136 875.864 243 890.5 243C905.136 243 917 231.136 917 216.5V96.0202C928.311 115.161 949.156 128 973 128C994.871 128 1014.22 117.198 1026 100.639V287C1026 309.091 1043.91 327 1066 327C1088.09 327 1106 309.091 1106 287V164.612C1113.21 175.113 1125.3 182 1139 182C1154.83 182 1168.52 172.801 1175 159.457V232.5C1175 247.136 1186.86 259 1201.5 259C1216.14 259 1228 247.136 1228 232.5V171.018C1237.75 188.882 1256.71 201 1278.5 201C1297.01 201 1313.48 192.251 1324 178.661V325C1324 347.091 1341.91 365 1364 365C1386.09 365 1404 347.091 1404 325V101.139C1408.94 106.582 1416.07 110 1424 110C1429.99 110 1435.52 108.05 1440 104.751V0Z"
    fill="#C4C4C4"
  />
  <path
    fillRule="evenodd"
    clipRule="evenodd"
    d="M0 0V247C0 269.091 17.9086 287 40 287C62.0914 287 80 269.091 80 247V85.1688C83.7882 86.3586 87.8192 87 92 87C97.3045 87 102.368 85.9675 107 84.0924V172C107 203.48 132.52 229 164 229C195.48 229 221 203.48 221 172V122.227C227.848 127.716 236.541 131 246 131C253.702 131 260.896 128.823 267 125.051V305C267 327.091 284.909 345 307 345C329.091 345 347 327.091 347 305V202C347 229.062 368.938 251 396 251C423.062 251 445 229.062 445 202V72.9954C453.052 87.3215 468.396 97 486 97C498.362 97 509.609 92.2274 518 84.4241V236C518 260.853 538.147 281 563 281C587.853 281 608 260.853 608 236V171C608 193.091 625.909 211 648 211C670.091 211 688 193.091 688 171V254C688 287.137 714.863 314 748 314C781.137 314 808 287.137 808 254V110.5C808 123.479 818.521 134 831.5 134C841.097 134 849.351 128.247 853 120.001V208.5C853 223.136 864.864 235 879.5 235C894.136 235 906 223.136 906 208.5V88.0202C917.311 107.161 938.156 120 962 120C983.871 120 1003.22 109.198 1015 92.6387V279C1015 301.091 1032.91 319 1055 319C1077.09 319 1095 301.091 1095 279V156.612C1102.21 167.113 1114.3 174 1128 174C1143.83 174 1157.52 164.801 1164 151.457V224.5C1164 239.136 1175.86 251 1190.5 251C1205.14 251 1217 239.136 1217 224.5V163.018C1226.75 180.882 1245.71 193 1267.5 193C1286.01 193 1302.48 184.251 1313 170.661V317C1313 339.091 1330.91 357 1353 357C1375.09 357 1393 339.091 1393 317V93.1387C1397.94 98.5818 1405.07 102 1413 102C1427.91 102 1440 89.9117 1440 75V0H0Z"
    fill="#ffffff"
  />
</svg>
